<svg width="321" height="534" viewBox="0 0 321 534" fill="none" xmlns="http://www.w3.org/2000/svg">
<mask id="mask0" mask-type="alpha" maskUnits="userSpaceOnUse" x="0" y="0" width="321" height="534">
<rect x="0.898438" y="1.33203" width="319" height="531.878" fill="#6F0C16" stroke="#F0F0F0"/>
</mask>
<g mask="url(#mask0)">
<path d="M186.217 206.504L209.898 192.832L233.58 206.504V233.85L209.898 247.522L186.217 233.85V206.504Z" stroke="#F0F0F0" stroke-width="2"/>
<path d="M192.398 208.677V230.177" stroke="#F0F0F0" stroke-width="2"/>
<path d="M228.018 230.677L209.399 241.427" stroke="#F0F0F0" stroke-width="2"/>
<path d="M228.018 210.427L209.399 199.677" stroke="#F0F0F0" stroke-width="2"/>
<path d="M193.217 486.504L216.898 472.832L240.58 486.504V513.85L216.898 527.522L193.217 513.85V486.504Z" stroke="#F0F0F0" stroke-width="2"/>
<path d="M199.398 488.677V510.177" stroke="#F0F0F0" stroke-width="2"/>
<path d="M235.018 510.677L216.399 521.427" stroke="#F0F0F0" stroke-width="2"/>
<path d="M235.018 490.427L216.399 479.677" stroke="#F0F0F0" stroke-width="2"/>
<path d="M163.217 346.504L186.898 332.832L210.58 346.504V373.85L186.898 387.522L163.217 373.85V346.504Z" stroke="#F0F0F0" stroke-width="2"/>
<path d="M169.398 348.677V370.177" stroke="#F0F0F0" stroke-width="2"/>
<path d="M205.018 370.677L186.399 381.427" stroke="#F0F0F0" stroke-width="2"/>
<path d="M205.018 350.427L186.399 339.677" stroke="#F0F0F0" stroke-width="2"/>
<path d="M156.217 66.5042L179.898 52.8316L203.58 66.5042V93.8495L179.898 107.522L156.217 93.8495V66.5042Z" stroke="#F0F0F0" stroke-width="2"/>
<path d="M162.398 68.6769V90.1769" stroke="#F0F0F0" stroke-width="2"/>
<path d="M198.018 90.6769L179.399 101.427" stroke="#F0F0F0" stroke-width="2"/>
<path d="M198.018 70.4269L179.399 59.6769" stroke="#F0F0F0" stroke-width="2"/>
<path d="M161.217 253.504L184.898 239.832L208.58 253.504V280.85L184.898 294.522L161.217 280.85V253.504Z" stroke="#F0F0F0" stroke-width="2"/>
<path d="M167.398 255.677V277.177" stroke="#F0F0F0" stroke-width="2"/>
<path d="M203.018 277.677L184.399 288.427" stroke="#F0F0F0" stroke-width="2"/>
<path d="M203.018 257.427L184.399 246.677" stroke="#F0F0F0" stroke-width="2"/>
<path d="M154.217 -26.4958L177.898 -40.1684L201.58 -26.4958V0.849529L177.898 14.5222L154.217 0.849529V-26.4958Z" stroke="#F0F0F0" stroke-width="2"/>
<path d="M196.018 -2.32312L177.399 8.42688" stroke="#F0F0F0" stroke-width="2"/>
<path d="M168.217 533.504L191.898 519.832L215.58 533.504V560.85L191.898 574.522L168.217 560.85V533.504Z" stroke="#F0F0F0" stroke-width="2"/>
<path d="M210.018 537.427L191.399 526.677" stroke="#F0F0F0" stroke-width="2"/>
<path d="M138.217 393.504L161.898 379.832L185.58 393.504V420.85L161.898 434.522L138.217 420.85V393.504Z" stroke="#F0F0F0" stroke-width="2"/>
<path d="M144.398 395.677V417.177" stroke="#F0F0F0" stroke-width="2"/>
<path d="M180.018 417.677L161.399 428.427" stroke="#F0F0F0" stroke-width="2"/>
<path d="M180.018 397.427L161.399 386.677" stroke="#F0F0F0" stroke-width="2"/>
<path d="M131.217 113.504L154.898 99.8316L178.58 113.504V140.85L154.898 154.522L131.217 140.85V113.504Z" stroke="#F0F0F0" stroke-width="2"/>
<path d="M137.398 115.677V137.177" stroke="#F0F0F0" stroke-width="2"/>
<path d="M173.018 137.677L154.399 148.427" stroke="#F0F0F0" stroke-width="2"/>
<path d="M173.018 117.427L154.399 106.677" stroke="#F0F0F0" stroke-width="2"/>
<path d="M189.217 300.504L212.898 286.832L236.58 300.504V327.85L212.898 341.522L189.217 327.85V300.504Z" stroke="#F0F0F0" stroke-width="2"/>
<path d="M195.398 302.677V324.177" stroke="#F0F0F0" stroke-width="2"/>
<path d="M231.018 324.677L212.399 335.427" stroke="#F0F0F0" stroke-width="2"/>
<path d="M231.018 304.427L212.399 293.677" stroke="#F0F0F0" stroke-width="2"/>
<path d="M182.217 20.5042L205.898 6.83158L229.58 20.5042V47.8495L205.898 61.5222L182.217 47.8495V20.5042Z" stroke="#F0F0F0" stroke-width="2"/>
<path d="M188.398 22.6769V44.1769" stroke="#F0F0F0" stroke-width="2"/>
<path d="M224.018 44.6769L205.399 55.4269" stroke="#F0F0F0" stroke-width="2"/>
<path d="M224.018 24.4269L205.399 13.6769" stroke="#F0F0F0" stroke-width="2"/>
<path d="M166.217 440.504L189.898 426.832L213.58 440.504V467.85L189.898 481.522L166.217 467.85V440.504Z" stroke="#F0F0F0" stroke-width="2"/>
<path d="M172.398 442.677V464.177" stroke="#F0F0F0" stroke-width="2"/>
<path d="M208.018 464.677L189.399 475.427" stroke="#F0F0F0" stroke-width="2"/>
<path d="M208.018 444.427L189.399 433.677" stroke="#F0F0F0" stroke-width="2"/>
<path d="M159.217 160.504L182.898 146.832L206.58 160.504V187.85L182.898 201.522L159.217 187.85V160.504Z" stroke="#F0F0F0" stroke-width="2"/>
<path d="M165.398 162.677V184.177" stroke="#F0F0F0" stroke-width="2"/>
<path d="M201.018 184.677L182.399 195.427" stroke="#F0F0F0" stroke-width="2"/>
<path d="M201.018 164.427L182.399 153.677" stroke="#F0F0F0" stroke-width="2"/>
<path d="M-24.7833 206.504L-1.10156 192.832L22.5802 206.504V233.85L-1.10156 247.522L-24.7833 233.85V206.504Z" stroke="#F0F0F0" stroke-width="2"/>
<path d="M17.0181 230.677L-1.60148 241.427" stroke="#F0F0F0" stroke-width="2"/>
<path d="M17.0181 210.427L-1.60148 199.677" stroke="#F0F0F0" stroke-width="2"/>
<path d="M-17.7833 486.504L5.89844 472.832L29.5802 486.504V513.85L5.89844 527.522L-17.7833 513.85V486.504Z" stroke="#F0F0F0" stroke-width="2"/>
<path d="M24.0181 510.677L5.39852 521.427" stroke="#F0F0F0" stroke-width="2"/>
<path d="M24.0181 490.427L5.39852 479.677" stroke="#F0F0F0" stroke-width="2"/>
<path d="M239.217 206.504L262.898 192.832L286.58 206.504V233.85L262.898 247.522L239.217 233.85V206.504Z" stroke="#F0F0F0" stroke-width="2"/>
<path d="M245.398 208.677V230.177" stroke="#F0F0F0" stroke-width="2"/>
<path d="M281.018 230.677L262.399 241.427" stroke="#F0F0F0" stroke-width="2"/>
<path d="M281.018 210.427L262.399 199.677" stroke="#F0F0F0" stroke-width="2"/>
<path d="M246.217 486.504L269.898 472.832L293.58 486.504V513.85L269.898 527.522L246.217 513.85V486.504Z" stroke="#F0F0F0" stroke-width="2"/>
<path d="M252.398 488.677V510.177" stroke="#F0F0F0" stroke-width="2"/>
<path d="M288.018 510.677L269.399 521.427" stroke="#F0F0F0" stroke-width="2"/>
<path d="M288.018 490.427L269.399 479.677" stroke="#F0F0F0" stroke-width="2"/>
<path d="M-47.7833 346.504L-24.1016 332.832L-0.419838 346.504V373.85L-24.1016 387.522L-47.7833 373.85V346.504Z" stroke="#F0F0F0" stroke-width="2"/>
<path d="M216.217 346.504L239.898 332.832L263.58 346.504V373.85L239.898 387.522L216.217 373.85V346.504Z" stroke="#F0F0F0" stroke-width="2"/>
<path d="M222.398 348.677V370.177" stroke="#F0F0F0" stroke-width="2"/>
<path d="M258.018 370.677L239.399 381.427" stroke="#F0F0F0" stroke-width="2"/>
<path d="M258.018 350.427L239.399 339.677" stroke="#F0F0F0" stroke-width="2"/>
<path d="M209.217 66.5042L232.898 52.8316L256.58 66.5042V93.8495L232.898 107.522L209.217 93.8495V66.5042Z" stroke="#F0F0F0" stroke-width="2"/>
<path d="M215.398 68.6769V90.1769" stroke="#F0F0F0" stroke-width="2"/>
<path d="M251.018 90.6769L232.399 101.427" stroke="#F0F0F0" stroke-width="2"/>
<path d="M251.018 70.4269L232.399 59.6769" stroke="#F0F0F0" stroke-width="2"/>
<path d="M-42.7833 533.504L-19.1016 519.832L4.58016 533.504V560.85L-19.1016 574.522L-42.7833 560.85V533.504Z" stroke="#F0F0F0" stroke-width="2"/>
<path d="M214.217 253.504L237.898 239.832L261.58 253.504V280.85L237.898 294.522L214.217 280.85V253.504Z" stroke="#F0F0F0" stroke-width="2"/>
<path d="M220.398 255.677V277.177" stroke="#F0F0F0" stroke-width="2"/>
<path d="M256.018 277.677L237.399 288.427" stroke="#F0F0F0" stroke-width="2"/>
<path d="M256.018 257.427L237.399 246.677" stroke="#F0F0F0" stroke-width="2"/>
<path d="M207.217 -26.4958L230.898 -40.1684L254.58 -26.4958V0.849529L230.898 14.5222L207.217 0.849529V-26.4958Z" stroke="#F0F0F0" stroke-width="2"/>
<path d="M249.018 -2.32312L230.399 8.42688" stroke="#F0F0F0" stroke-width="2"/>
<path d="M221.217 533.504L244.898 519.832L268.58 533.504V560.85L244.898 574.522L221.217 560.85V533.504Z" stroke="#F0F0F0" stroke-width="2"/>
<path d="M263.018 537.427L244.399 526.677" stroke="#F0F0F0" stroke-width="2"/>
<path d="M191.217 393.504L214.898 379.832L238.58 393.504V420.85L214.898 434.522L191.217 420.85V393.504Z" stroke="#F0F0F0" stroke-width="2"/>
<path d="M197.398 395.677V417.177" stroke="#F0F0F0" stroke-width="2"/>
<path d="M233.018 417.677L214.399 428.427" stroke="#F0F0F0" stroke-width="2"/>
<path d="M233.018 397.427L214.399 386.677" stroke="#F0F0F0" stroke-width="2"/>
<path d="M184.217 113.504L207.898 99.8316L231.58 113.504V140.85L207.898 154.522L184.217 140.85V113.504Z" stroke="#F0F0F0" stroke-width="2"/>
<path d="M190.398 115.677V137.177" stroke="#F0F0F0" stroke-width="2"/>
<path d="M226.018 137.677L207.399 148.427" stroke="#F0F0F0" stroke-width="2"/>
<path d="M226.018 117.427L207.399 106.677" stroke="#F0F0F0" stroke-width="2"/>
<path d="M-21.7833 300.504L1.89844 286.832L25.5802 300.504V327.85L1.89844 341.522L-21.7833 327.85V300.504Z" stroke="#F0F0F0" stroke-width="2"/>
<path d="M20.0181 324.677L1.39852 335.427" stroke="#F0F0F0" stroke-width="2"/>
<path d="M20.0181 304.427L1.39852 293.677" stroke="#F0F0F0" stroke-width="2"/>
<path d="M-28.7833 20.5042L-5.10156 6.83158L18.5802 20.5042V47.8495L-5.10156 61.5222L-28.7833 47.8495V20.5042Z" stroke="#F0F0F0" stroke-width="2"/>
<path d="M13.0181 44.6769L-5.60148 55.4269" stroke="#F0F0F0" stroke-width="2"/>
<path d="M13.0181 24.4269L-5.60148 13.6769" stroke="#F0F0F0" stroke-width="2"/>
<path d="M242.217 300.504L265.898 286.832L289.58 300.504V327.85L265.898 341.522L242.217 327.85V300.504Z" stroke="#F0F0F0" stroke-width="2"/>
<path d="M248.398 302.677V324.177" stroke="#F0F0F0" stroke-width="2"/>
<path d="M284.018 324.677L265.399 335.427" stroke="#F0F0F0" stroke-width="2"/>
<path d="M284.018 304.427L265.399 293.677" stroke="#F0F0F0" stroke-width="2"/>
<path d="M235.217 20.5042L258.898 6.83158L282.58 20.5042V47.8495L258.898 61.5222L235.217 47.8495V20.5042Z" stroke="#F0F0F0" stroke-width="2"/>
<path d="M241.398 22.6769V44.1769" stroke="#F0F0F0" stroke-width="2"/>
<path d="M277.018 44.6769L258.399 55.4269" stroke="#F0F0F0" stroke-width="2"/>
<path d="M277.018 24.4269L258.399 13.6769" stroke="#F0F0F0" stroke-width="2"/>
<path d="M-44.7833 440.504L-21.1016 426.832L2.58016 440.504V467.85L-21.1016 481.522L-44.7833 467.85V440.504Z" stroke="#F0F0F0" stroke-width="2"/>
<path d="M219.217 440.504L242.898 426.832L266.58 440.504V467.85L242.898 481.522L219.217 467.85V440.504Z" stroke="#F0F0F0" stroke-width="2"/>
<path d="M225.398 442.677V464.177" stroke="#F0F0F0" stroke-width="2"/>
<path d="M261.018 464.677L242.399 475.427" stroke="#F0F0F0" stroke-width="2"/>
<path d="M261.018 444.427L242.399 433.677" stroke="#F0F0F0" stroke-width="2"/>
<path d="M212.217 160.504L235.898 146.832L259.58 160.504V187.85L235.898 201.522L212.217 187.85V160.504Z" stroke="#F0F0F0" stroke-width="2"/>
<path d="M218.398 162.677V184.177" stroke="#F0F0F0" stroke-width="2"/>
<path d="M254.018 184.677L235.399 195.427" stroke="#F0F0F0" stroke-width="2"/>
<path d="M254.018 164.427L235.399 153.677" stroke="#F0F0F0" stroke-width="2"/>
<path d="M28.2167 206.504L51.8984 192.832L75.5802 206.504V233.85L51.8984 247.522L28.2167 233.85V206.504Z" stroke="#F0F0F0" stroke-width="2"/>
<path d="M34.3984 208.677V230.177" stroke="#F0F0F0" stroke-width="2"/>
<path d="M70.0181 230.677L51.3985 241.427" stroke="#F0F0F0" stroke-width="2"/>
<path d="M70.0181 210.427L51.3985 199.677" stroke="#F0F0F0" stroke-width="2"/>
<path d="M35.2167 486.504L58.8984 472.832L82.5802 486.504V513.85L58.8984 527.522L35.2167 513.85V486.504Z" stroke="#F0F0F0" stroke-width="2"/>
<path d="M41.3984 488.677V510.177" stroke="#F0F0F0" stroke-width="2"/>
<path d="M77.0181 510.677L58.3985 521.427" stroke="#F0F0F0" stroke-width="2"/>
<path d="M77.0181 490.427L58.3985 479.677" stroke="#F0F0F0" stroke-width="2"/>
<path d="M292.217 206.504L315.898 192.832L339.58 206.504V233.85L315.898 247.522L292.217 233.85V206.504Z" stroke="#F0F0F0" stroke-width="2"/>
<path d="M298.398 208.677V230.177" stroke="#F0F0F0" stroke-width="2"/>
<path d="M334.018 230.677L315.399 241.427" stroke="#F0F0F0" stroke-width="2"/>
<path d="M334.018 210.427L315.399 199.677" stroke="#F0F0F0" stroke-width="2"/>
<path d="M299.217 486.504L322.898 472.832L346.58 486.504V513.85L322.898 527.522L299.217 513.85V486.504Z" stroke="#F0F0F0" stroke-width="2"/>
<path d="M305.398 488.677V510.177" stroke="#F0F0F0" stroke-width="2"/>
<path d="M5.21671 346.504L28.8984 332.832L52.5802 346.504V373.85L28.8984 387.522L5.21671 373.85V346.504Z" stroke="#F0F0F0" stroke-width="2"/>
<path d="M11.3984 348.677V370.177" stroke="#F0F0F0" stroke-width="2"/>
<path d="M47.0181 370.677L28.3985 381.427" stroke="#F0F0F0" stroke-width="2"/>
<path d="M47.0181 350.427L28.3985 339.677" stroke="#F0F0F0" stroke-width="2"/>
<path d="M-1.78329 66.5042L21.8984 52.8316L45.5802 66.5042V93.8495L21.8984 107.522L-1.78329 93.8495V66.5042Z" stroke="#F0F0F0" stroke-width="2"/>
<path d="M4.39844 68.6769V90.1769" stroke="#F0F0F0" stroke-width="2"/>
<path d="M40.0181 90.6769L21.3985 101.427" stroke="#F0F0F0" stroke-width="2"/>
<path d="M40.0181 70.4269L21.3985 59.6769" stroke="#F0F0F0" stroke-width="2"/>
<path d="M269.217 346.504L292.898 332.832L316.58 346.504V373.85L292.898 387.522L269.217 373.85V346.504Z" stroke="#F0F0F0" stroke-width="2"/>
<path d="M275.398 348.677V370.177" stroke="#F0F0F0" stroke-width="2"/>
<path d="M311.018 370.677L292.399 381.427" stroke="#F0F0F0" stroke-width="2"/>
<path d="M311.018 350.427L292.399 339.677" stroke="#F0F0F0" stroke-width="2"/>
<path d="M262.217 66.5042L285.898 52.8316L309.58 66.5042V93.8495L285.898 107.522L262.217 93.8495V66.5042Z" stroke="#F0F0F0" stroke-width="2"/>
<path d="M268.398 68.6769V90.1769" stroke="#F0F0F0" stroke-width="2"/>
<path d="M304.018 90.6769L285.399 101.427" stroke="#F0F0F0" stroke-width="2"/>
<path d="M304.018 70.4269L285.399 59.6769" stroke="#F0F0F0" stroke-width="2"/>
<path d="M3.21671 253.504L26.8984 239.832L50.5802 253.504V280.85L26.8984 294.522L3.21671 280.85V253.504Z" stroke="#F0F0F0" stroke-width="2"/>
<path d="M9.39844 255.677V277.177" stroke="#F0F0F0" stroke-width="2"/>
<path d="M45.0181 277.677L26.3985 288.427" stroke="#F0F0F0" stroke-width="2"/>
<path d="M45.0181 257.427L26.3985 246.677" stroke="#F0F0F0" stroke-width="2"/>
<path d="M-3.78329 -26.4958L19.8984 -40.1684L43.5802 -26.4958V0.849529L19.8984 14.5222L-3.78329 0.849529V-26.4958Z" stroke="#F0F0F0" stroke-width="2"/>
<path d="M38.0181 -2.32312L19.3985 8.42688" stroke="#F0F0F0" stroke-width="2"/>
<path d="M10.2167 533.504L33.8984 519.832L57.5802 533.504V560.85L33.8984 574.522L10.2167 560.85V533.504Z" stroke="#F0F0F0" stroke-width="2"/>
<path d="M52.0181 537.427L33.3985 526.677" stroke="#F0F0F0" stroke-width="2"/>
<path d="M267.217 253.504L290.898 239.832L314.58 253.504V280.85L290.898 294.522L267.217 280.85V253.504Z" stroke="#F0F0F0" stroke-width="2"/>
<path d="M273.398 255.677V277.177" stroke="#F0F0F0" stroke-width="2"/>
<path d="M309.018 277.677L290.399 288.427" stroke="#F0F0F0" stroke-width="2"/>
<path d="M309.018 257.427L290.399 246.677" stroke="#F0F0F0" stroke-width="2"/>
<path d="M260.217 -26.4958L283.898 -40.1684L307.58 -26.4958V0.849529L283.898 14.5222L260.217 0.849529V-26.4958Z" stroke="#F0F0F0" stroke-width="2"/>
<path d="M302.018 -2.32312L283.399 8.42688" stroke="#F0F0F0" stroke-width="2"/>
<path d="M274.217 533.504L297.898 519.832L321.58 533.504V560.85L297.898 574.522L274.217 560.85V533.504Z" stroke="#F0F0F0" stroke-width="2"/>
<path d="M316.018 537.427L297.399 526.677" stroke="#F0F0F0" stroke-width="2"/>
<path d="M-19.7833 393.504L3.89844 379.832L27.5802 393.504V420.85L3.89844 434.522L-19.7833 420.85V393.504Z" stroke="#F0F0F0" stroke-width="2"/>
<path d="M22.0181 417.677L3.39852 428.427" stroke="#F0F0F0" stroke-width="2"/>
<path d="M22.0181 397.427L3.39852 386.677" stroke="#F0F0F0" stroke-width="2"/>
<path d="M-26.7833 113.504L-3.10156 99.8316L20.5802 113.504V140.85L-3.10156 154.522L-26.7833 140.85V113.504Z" stroke="#F0F0F0" stroke-width="2"/>
<path d="M15.0181 137.677L-3.60148 148.427" stroke="#F0F0F0" stroke-width="2"/>
<path d="M15.0181 117.427L-3.60148 106.677" stroke="#F0F0F0" stroke-width="2"/>
<path d="M244.217 393.504L267.898 379.832L291.58 393.504V420.85L267.898 434.522L244.217 420.85V393.504Z" stroke="#F0F0F0" stroke-width="2"/>
<path d="M250.398 395.677V417.177" stroke="#F0F0F0" stroke-width="2"/>
<path d="M286.018 417.677L267.399 428.427" stroke="#F0F0F0" stroke-width="2"/>
<path d="M286.018 397.427L267.399 386.677" stroke="#F0F0F0" stroke-width="2"/>
<path d="M237.217 113.504L260.898 99.8316L284.58 113.504V140.85L260.898 154.522L237.217 140.85V113.504Z" stroke="#F0F0F0" stroke-width="2"/>
<path d="M243.398 115.677V137.177" stroke="#F0F0F0" stroke-width="2"/>
<path d="M279.018 137.677L260.399 148.427" stroke="#F0F0F0" stroke-width="2"/>
<path d="M279.018 117.427L260.399 106.677" stroke="#F0F0F0" stroke-width="2"/>
<path d="M31.2167 300.504L54.8984 286.832L78.5802 300.504V327.85L54.8984 341.522L31.2167 327.85V300.504Z" stroke="#F0F0F0" stroke-width="2"/>
<path d="M37.3984 302.677V324.177" stroke="#F0F0F0" stroke-width="2"/>
<path d="M73.0181 324.677L54.3985 335.427" stroke="#F0F0F0" stroke-width="2"/>
<path d="M73.0181 304.427L54.3985 293.677" stroke="#F0F0F0" stroke-width="2"/>
<path d="M24.2167 20.5042L47.8984 6.83158L71.5802 20.5042V47.8495L47.8984 61.5222L24.2167 47.8495V20.5042Z" stroke="#F0F0F0" stroke-width="2"/>
<path d="M30.3984 22.6769V44.1769" stroke="#F0F0F0" stroke-width="2"/>
<path d="M66.0181 44.6769L47.3985 55.4269" stroke="#F0F0F0" stroke-width="2"/>
<path d="M66.0181 24.4269L47.3985 13.6769" stroke="#F0F0F0" stroke-width="2"/>
<path d="M295.217 300.504L318.898 286.832L342.58 300.504V327.85L318.898 341.522L295.217 327.85V300.504Z" stroke="#F0F0F0" stroke-width="2"/>
<path d="M301.398 302.677V324.177" stroke="#F0F0F0" stroke-width="2"/>
<path d="M337.018 324.677L318.399 335.427" stroke="#F0F0F0" stroke-width="2"/>
<path d="M337.018 304.427L318.399 293.677" stroke="#F0F0F0" stroke-width="2"/>
<path d="M288.217 20.5042L311.898 6.83158L335.58 20.5042V47.8495L311.898 61.5222L288.217 47.8495V20.5042Z" stroke="#F0F0F0" stroke-width="2"/>
<path d="M294.398 22.6769V44.1769" stroke="#F0F0F0" stroke-width="2"/>
<path d="M330.018 44.6769L311.399 55.4269" stroke="#F0F0F0" stroke-width="2"/>
<path d="M330.018 24.4269L311.399 13.6769" stroke="#F0F0F0" stroke-width="2"/>
<path d="M8.21671 440.504L31.8984 426.832L55.5802 440.504V467.85L31.8984 481.522L8.21671 467.85V440.504Z" stroke="#F0F0F0" stroke-width="2"/>
<path d="M14.3984 442.677V464.177" stroke="#F0F0F0" stroke-width="2"/>
<path d="M50.0181 464.677L31.3985 475.427" stroke="#F0F0F0" stroke-width="2"/>
<path d="M50.0181 444.427L31.3985 433.677" stroke="#F0F0F0" stroke-width="2"/>
<path d="M1.21671 160.504L24.8984 146.832L48.5802 160.504V187.85L24.8984 201.522L1.21671 187.85V160.504Z" stroke="#F0F0F0" stroke-width="2"/>
<path d="M7.39844 162.677V184.177" stroke="#F0F0F0" stroke-width="2"/>
<path d="M43.0181 184.677L24.3985 195.427" stroke="#F0F0F0" stroke-width="2"/>
<path d="M43.0181 164.427L24.3985 153.677" stroke="#F0F0F0" stroke-width="2"/>
<path d="M272.217 440.504L295.898 426.832L319.58 440.504V467.85L295.898 481.522L272.217 467.85V440.504Z" stroke="#F0F0F0" stroke-width="2"/>
<path d="M278.398 442.677V464.177" stroke="#F0F0F0" stroke-width="2"/>
<path d="M314.018 464.677L295.399 475.427" stroke="#F0F0F0" stroke-width="2"/>
<path d="M314.018 444.427L295.399 433.677" stroke="#F0F0F0" stroke-width="2"/>
<path d="M265.217 160.504L288.898 146.832L312.58 160.504V187.85L288.898 201.522L265.217 187.85V160.504Z" stroke="#F0F0F0" stroke-width="2"/>
<path d="M271.398 162.677V184.177" stroke="#F0F0F0" stroke-width="2"/>
<path d="M307.018 184.677L288.399 195.427" stroke="#F0F0F0" stroke-width="2"/>
<path d="M307.018 164.427L288.399 153.677" stroke="#F0F0F0" stroke-width="2"/>
<path d="M81.2167 206.504L104.898 192.832L128.58 206.504V233.85L104.898 247.522L81.2167 233.85V206.504Z" stroke="#F0F0F0" stroke-width="2"/>
<path d="M87.3984 208.677V230.177" stroke="#F0F0F0" stroke-width="2"/>
<path d="M123.018 230.677L104.399 241.427" stroke="#F0F0F0" stroke-width="2"/>
<path d="M123.018 210.427L104.399 199.677" stroke="#F0F0F0" stroke-width="2"/>
<path d="M88.2167 486.504L111.898 472.832L135.58 486.504V513.85L111.898 527.522L88.2167 513.85V486.504Z" stroke="#F0F0F0" stroke-width="2"/>
<path d="M94.3984 488.677V510.177" stroke="#F0F0F0" stroke-width="2"/>
<path d="M130.018 510.677L111.399 521.427" stroke="#F0F0F0" stroke-width="2"/>
<path d="M130.018 490.427L111.399 479.677" stroke="#F0F0F0" stroke-width="2"/>
<path d="M58.2167 346.504L81.8984 332.832L105.58 346.504V373.85L81.8984 387.522L58.2167 373.85V346.504Z" stroke="#F0F0F0" stroke-width="2"/>
<path d="M64.3984 348.677V370.177" stroke="#F0F0F0" stroke-width="2"/>
<path d="M100.018 370.677L81.3985 381.427" stroke="#F0F0F0" stroke-width="2"/>
<path d="M100.018 350.427L81.3985 339.677" stroke="#F0F0F0" stroke-width="2"/>
<path d="M51.2167 66.5042L74.8984 52.8316L98.5802 66.5042V93.8495L74.8984 107.522L51.2167 93.8495V66.5042Z" stroke="#F0F0F0" stroke-width="2"/>
<path d="M57.3984 68.6769V90.1769" stroke="#F0F0F0" stroke-width="2"/>
<path d="M93.0181 90.6769L74.3985 101.427" stroke="#F0F0F0" stroke-width="2"/>
<path d="M93.0181 70.4269L74.3985 59.6769" stroke="#F0F0F0" stroke-width="2"/>
<path d="M315.217 66.5042L338.898 52.8316L362.58 66.5042V93.8495L338.898 107.522L315.217 93.8495V66.5042Z" stroke="#F0F0F0" stroke-width="2"/>
<path d="M56.2167 253.504L79.8984 239.832L103.58 253.504V280.85L79.8984 294.522L56.2167 280.85V253.504Z" stroke="#F0F0F0" stroke-width="2"/>
<path d="M62.3984 255.677V277.177" stroke="#F0F0F0" stroke-width="2"/>
<path d="M98.0181 277.677L79.3985 288.427" stroke="#F0F0F0" stroke-width="2"/>
<path d="M98.0181 257.427L79.3985 246.677" stroke="#F0F0F0" stroke-width="2"/>
<path d="M49.2167 -26.4958L72.8984 -40.1684L96.5802 -26.4958V0.849529L72.8984 14.5222L49.2167 0.849529V-26.4958Z" stroke="#F0F0F0" stroke-width="2"/>
<path d="M91.0181 -2.32312L72.3985 8.42688" stroke="#F0F0F0" stroke-width="2"/>
<path d="M63.2167 533.504L86.8984 519.832L110.58 533.504V560.85L86.8984 574.522L63.2167 560.85V533.504Z" stroke="#F0F0F0" stroke-width="2"/>
<path d="M105.018 537.427L86.3985 526.677" stroke="#F0F0F0" stroke-width="2"/>
<path d="M320.217 253.504L343.898 239.832L367.58 253.504V280.85L343.898 294.522L320.217 280.85V253.504Z" stroke="#F0F0F0" stroke-width="2"/>
<path d="M313.217 -26.4958L336.898 -40.1684L360.58 -26.4958V0.849529L336.898 14.5222L313.217 0.849529V-26.4958Z" stroke="#F0F0F0" stroke-width="2"/>
<path d="M33.2167 393.504L56.8984 379.832L80.5802 393.504V420.85L56.8984 434.522L33.2167 420.85V393.504Z" stroke="#F0F0F0" stroke-width="2"/>
<path d="M39.3984 395.677V417.177" stroke="#F0F0F0" stroke-width="2"/>
<path d="M75.0181 417.677L56.3985 428.427" stroke="#F0F0F0" stroke-width="2"/>
<path d="M75.0181 397.427L56.3985 386.677" stroke="#F0F0F0" stroke-width="2"/>
<path d="M26.2167 113.504L49.8984 99.8316L73.5802 113.504V140.85L49.8984 154.522L26.2167 140.85V113.504Z" stroke="#F0F0F0" stroke-width="2"/>
<path d="M32.3984 115.677V137.177" stroke="#F0F0F0" stroke-width="2"/>
<path d="M68.0181 137.677L49.3985 148.427" stroke="#F0F0F0" stroke-width="2"/>
<path d="M68.0181 117.427L49.3985 106.677" stroke="#F0F0F0" stroke-width="2"/>
<path d="M297.217 393.504L320.898 379.832L344.58 393.504V420.85L320.898 434.522L297.217 420.85V393.504Z" stroke="#F0F0F0" stroke-width="2"/>
<path d="M303.398 395.677V417.177" stroke="#F0F0F0" stroke-width="2"/>
<path d="M339.018 417.677L320.399 428.427" stroke="#F0F0F0" stroke-width="2"/>
<path d="M339.018 397.427L320.399 386.677" stroke="#F0F0F0" stroke-width="2"/>
<path d="M290.217 113.504L313.898 99.8316L337.58 113.504V140.85L313.898 154.522L290.217 140.85V113.504Z" stroke="#F0F0F0" stroke-width="2"/>
<path d="M296.398 115.677V137.177" stroke="#F0F0F0" stroke-width="2"/>
<path d="M332.018 137.677L313.399 148.427" stroke="#F0F0F0" stroke-width="2"/>
<path d="M332.018 117.427L313.399 106.677" stroke="#F0F0F0" stroke-width="2"/>
<path d="M84.2167 300.504L107.898 286.832L131.58 300.504V327.85L107.898 341.522L84.2167 327.85V300.504Z" stroke="#F0F0F0" stroke-width="2"/>
<path d="M90.3984 302.677V324.177" stroke="#F0F0F0" stroke-width="2"/>
<path d="M126.018 324.677L107.399 335.427" stroke="#F0F0F0" stroke-width="2"/>
<path d="M126.018 304.427L107.399 293.677" stroke="#F0F0F0" stroke-width="2"/>
<path d="M77.2167 20.5042L100.898 6.83158L124.58 20.5042V47.8495L100.898 61.5222L77.2167 47.8495V20.5042Z" stroke="#F0F0F0" stroke-width="2"/>
<path d="M83.3984 22.6769V44.1769" stroke="#F0F0F0" stroke-width="2"/>
<path d="M119.018 44.6769L100.399 55.4269" stroke="#F0F0F0" stroke-width="2"/>
<path d="M119.018 24.4269L100.399 13.6769" stroke="#F0F0F0" stroke-width="2"/>
<path d="M61.2167 440.504L84.8984 426.832L108.58 440.504V467.85L84.8984 481.522L61.2167 467.85V440.504Z" stroke="#F0F0F0" stroke-width="2"/>
<path d="M67.3984 442.677V464.177" stroke="#F0F0F0" stroke-width="2"/>
<path d="M103.018 464.677L84.3985 475.427" stroke="#F0F0F0" stroke-width="2"/>
<path d="M103.018 444.427L84.3985 433.677" stroke="#F0F0F0" stroke-width="2"/>
<path d="M54.2167 160.504L77.8984 146.832L101.58 160.504V187.85L77.8984 201.522L54.2167 187.85V160.504Z" stroke="#F0F0F0" stroke-width="2"/>
<path d="M60.3984 162.677V184.177" stroke="#F0F0F0" stroke-width="2"/>
<path d="M96.0181 184.677L77.3985 195.427" stroke="#F0F0F0" stroke-width="2"/>
<path d="M96.0181 164.427L77.3985 153.677" stroke="#F0F0F0" stroke-width="2"/>
<path d="M318.217 160.504L341.898 146.832L365.58 160.504V187.85L341.898 201.522L318.217 187.85V160.504Z" stroke="#F0F0F0" stroke-width="2"/>
<path d="M134.217 206.504L157.898 192.832L181.58 206.504V233.85L157.898 247.522L134.217 233.85V206.504Z" stroke="#F0F0F0" stroke-width="2"/>
<path d="M140.398 208.677V230.177" stroke="#F0F0F0" stroke-width="2"/>
<path d="M176.018 230.677L157.399 241.427" stroke="#F0F0F0" stroke-width="2"/>
<path d="M176.018 210.427L157.399 199.677" stroke="#F0F0F0" stroke-width="2"/>
<path d="M141.217 486.504L164.898 472.832L188.58 486.504V513.85L164.898 527.522L141.217 513.85V486.504Z" stroke="#F0F0F0" stroke-width="2"/>
<path d="M147.398 488.677V510.177" stroke="#F0F0F0" stroke-width="2"/>
<path d="M183.018 510.677L164.399 521.427" stroke="#F0F0F0" stroke-width="2"/>
<path d="M183.018 490.427L164.399 479.677" stroke="#F0F0F0" stroke-width="2"/>
<path d="M111.217 346.504L134.898 332.832L158.58 346.504V373.85L134.898 387.522L111.217 373.85V346.504Z" stroke="#F0F0F0" stroke-width="2"/>
<path d="M117.398 348.677V370.177" stroke="#F0F0F0" stroke-width="2"/>
<path d="M153.018 370.677L134.399 381.427" stroke="#F0F0F0" stroke-width="2"/>
<path d="M153.018 350.427L134.399 339.677" stroke="#F0F0F0" stroke-width="2"/>
<path d="M104.217 66.5042L127.898 52.8316L151.58 66.5042V93.8495L127.898 107.522L104.217 93.8495V66.5042Z" stroke="#F0F0F0" stroke-width="2"/>
<path d="M110.398 68.6769V90.1769" stroke="#F0F0F0" stroke-width="2"/>
<path d="M146.018 90.6769L127.399 101.427" stroke="#F0F0F0" stroke-width="2"/>
<path d="M146.018 70.4269L127.399 59.6769" stroke="#F0F0F0" stroke-width="2"/>
<path d="M109.217 253.504L132.898 239.832L156.58 253.504V280.85L132.898 294.522L109.217 280.85V253.504Z" stroke="#F0F0F0" stroke-width="2"/>
<path d="M115.398 255.677V277.177" stroke="#F0F0F0" stroke-width="2"/>
<path d="M151.018 277.677L132.399 288.427" stroke="#F0F0F0" stroke-width="2"/>
<path d="M151.018 257.427L132.399 246.677" stroke="#F0F0F0" stroke-width="2"/>
<path d="M102.217 -26.4958L125.898 -40.1684L149.58 -26.4958V0.849529L125.898 14.5222L102.217 0.849529V-26.4958Z" stroke="#F0F0F0" stroke-width="2"/>
<path d="M144.018 -2.32312L125.399 8.42688" stroke="#F0F0F0" stroke-width="2"/>
<path d="M116.217 533.504L139.898 519.832L163.58 533.504V560.85L139.898 574.522L116.217 560.85V533.504Z" stroke="#F0F0F0" stroke-width="2"/>
<path d="M158.018 537.427L139.399 526.677" stroke="#F0F0F0" stroke-width="2"/>
<path d="M86.2167 393.504L109.898 379.832L133.58 393.504V420.85L109.898 434.522L86.2167 420.85V393.504Z" stroke="#F0F0F0" stroke-width="2"/>
<path d="M92.3984 395.677V417.177" stroke="#F0F0F0" stroke-width="2"/>
<path d="M128.018 417.677L109.399 428.427" stroke="#F0F0F0" stroke-width="2"/>
<path d="M128.018 397.427L109.399 386.677" stroke="#F0F0F0" stroke-width="2"/>
<path d="M79.2167 113.504L102.898 99.8316L126.58 113.504V140.85L102.898 154.522L79.2167 140.85V113.504Z" stroke="#F0F0F0" stroke-width="2"/>
<path d="M85.3984 115.677V137.177" stroke="#F0F0F0" stroke-width="2"/>
<path d="M121.018 137.677L102.399 148.427" stroke="#F0F0F0" stroke-width="2"/>
<path d="M121.018 117.427L102.399 106.677" stroke="#F0F0F0" stroke-width="2"/>
<path d="M137.217 300.504L160.898 286.832L184.58 300.504V327.85L160.898 341.522L137.217 327.85V300.504Z" stroke="#F0F0F0" stroke-width="2"/>
<path d="M143.398 302.677V324.177" stroke="#F0F0F0" stroke-width="2"/>
<path d="M179.018 324.677L160.399 335.427" stroke="#F0F0F0" stroke-width="2"/>
<path d="M179.018 304.427L160.399 293.677" stroke="#F0F0F0" stroke-width="2"/>
<path d="M130.217 20.5042L153.898 6.83158L177.58 20.5042V47.8495L153.898 61.5222L130.217 47.8495V20.5042Z" stroke="#F0F0F0" stroke-width="2"/>
<path d="M136.398 22.6769V44.1769" stroke="#F0F0F0" stroke-width="2"/>
<path d="M172.018 44.6769L153.399 55.4269" stroke="#F0F0F0" stroke-width="2"/>
<path d="M172.018 24.4269L153.399 13.6769" stroke="#F0F0F0" stroke-width="2"/>
<path d="M114.217 440.504L137.898 426.832L161.58 440.504V467.85L137.898 481.522L114.217 467.85V440.504Z" stroke="#F0F0F0" stroke-width="2"/>
<path d="M120.398 442.677V464.177" stroke="#F0F0F0" stroke-width="2"/>
<path d="M156.018 464.677L137.399 475.427" stroke="#F0F0F0" stroke-width="2"/>
<path d="M156.018 444.427L137.399 433.677" stroke="#F0F0F0" stroke-width="2"/>
<path d="M107.217 160.504L130.898 146.832L154.58 160.504V187.85L130.898 201.522L107.217 187.85V160.504Z" stroke="#F0F0F0" stroke-width="2"/>
<path d="M113.398 162.677V184.177" stroke="#F0F0F0" stroke-width="2"/>
<path d="M149.018 184.677L130.399 195.427" stroke="#F0F0F0" stroke-width="2"/>
<path d="M149.018 164.427L130.399 153.677" stroke="#F0F0F0" stroke-width="2"/>
</g>
</svg>
