<svg width="36" height="36" viewBox="0 0 36 36" fill="none" xmlns="http://www.w3.org/2000/svg">
<g opacity="0.5">
<path d="M17.9127 0.804688C8.19672 0.804688 0.320312 8.50208 0.320312 17.9973C0.320312 27.4925 8.19672 35.1899 17.9127 35.1899C27.6288 35.1899 35.5052 27.4925 35.5052 17.9973C35.4949 8.50633 27.6245 0.814833 17.9127 0.804688ZM19.1694 17.9973C19.1694 18.6755 18.6068 19.2254 17.9127 19.2254H7.85994C7.16591 19.2254 6.60331 18.6755 6.60331 17.9973C6.60331 17.319 7.16591 16.7692 7.85994 16.7692H16.6562V8.17296C16.6562 7.4947 17.2188 6.94489 17.9128 6.94489C18.6068 6.94489 19.1694 7.4947 19.1694 8.17296V17.9973Z" fill="#DE172C"/>
</g>
</svg>
