<svg width="30" height="44" viewBox="0 0 30 44" fill="none" xmlns="http://www.w3.org/2000/svg">
<path opacity="0.5" fill-rule="evenodd" clip-rule="evenodd" d="M0.373047 14.7802C0.373047 6.76381 6.89515 0.241699 14.9115 0.241699C22.9279 0.241699 29.45 6.76381 29.45 14.7801C29.45 17.1866 28.8483 19.5727 27.7089 21.6819L15.7066 43.3885C15.5468 43.6778 15.2425 43.857 14.9115 43.857C14.5806 43.857 14.2762 43.6778 14.1165 43.3885L2.11851 21.6891C0.974717 19.5727 0.373047 17.1867 0.373047 14.7802ZM14.9097 17.4494C16.6372 17.4494 18.0375 16.049 18.0375 14.3216C18.0375 12.5941 16.6372 11.1938 14.9097 11.1938C13.1823 11.1938 11.7819 12.5941 11.7819 14.3216C11.7819 16.049 13.1823 17.4494 14.9097 17.4494Z" fill="#DE172C"/>
</svg>
