<svg width="38" height="37" viewBox="0 0 38 37" fill="none" xmlns="http://www.w3.org/2000/svg">
<g opacity="0.5">
<path d="M15.8019 22.0109C12.3468 18.5558 11.5667 15.1008 11.3907 13.7165C11.3415 13.3337 11.4732 12.9499 11.7471 12.678L14.5431 9.88322C14.9544 9.47217 15.0274 8.83158 14.7191 8.33854L10.2673 1.4259C9.92624 0.879963 9.22594 0.682927 8.65024 0.970927L1.50356 4.33675C1.03801 4.56599 0.764177 5.06063 0.817034 5.57686C1.1915 9.13428 2.74241 17.8793 11.3364 26.4739C19.9304 35.0685 28.6742 36.6188 32.2335 36.9933C32.7497 37.0462 33.2443 36.7723 33.4736 36.3068L36.8394 29.1601C37.1263 28.5856 36.9306 27.8872 36.3869 27.5455L29.4743 23.095C28.9815 22.7864 28.341 22.8589 27.9296 23.2697L25.1348 26.0658C24.8629 26.3396 24.4791 26.4713 24.0963 26.4221C22.712 26.2461 19.257 25.466 15.8019 22.0109Z" fill="#DE172C"/>
<path d="M29.5226 20.1498C28.8333 20.1498 28.2744 19.5909 28.2744 18.9015C28.2686 13.7337 24.0806 9.54574 18.9128 9.5399C18.2234 9.5399 17.6646 8.98105 17.6646 8.29168C17.6646 7.6023 18.2234 7.04346 18.9128 7.04346C25.4588 7.05068 30.7636 12.3555 30.7709 18.9015C30.7709 19.5909 30.212 20.1498 29.5226 20.1498Z" fill="#DE172C"/>
<path d="M35.7637 20.1497C35.0744 20.1497 34.5155 19.5908 34.5155 18.9014C34.5059 10.2883 27.5259 3.30832 18.9128 3.29869C18.2234 3.29869 17.6646 2.73984 17.6646 2.05047C17.6646 1.36109 18.2234 0.802246 18.9128 0.802246C28.9041 0.813253 37.0009 8.91009 37.012 18.9014C37.012 19.2325 36.8804 19.55 36.6464 19.7841C36.4123 20.0181 36.0948 20.1497 35.7637 20.1497Z" fill="#DE172C"/>
</g>
</svg>
