<svg width="26" height="32" viewBox="0 0 26 32" fill="none" xmlns="http://www.w3.org/2000/svg">
<g opacity="0.5">
<path d="M23.4976 1.2371H11.4267L11.391 1.14399C11.1593 0.54272 10.5808 0.145508 9.93593 0.145508H2.79106C1.43697 0.145508 0.298828 1.22026 0.298828 2.57435V28.6933C0.298828 30.0454 1.43598 31.1231 2.79106 31.1231H21.3748C21.6671 31.1231 21.9395 30.9785 22.1039 30.7398C22.2683 30.5 22.305 30.194 22.2029 29.9235H23.4986C24.7516 29.9235 25.7135 28.9122 25.7135 27.6601V3.50844C25.7125 2.25638 24.7497 1.2371 23.4976 1.2371ZM23.2054 27.3065H21.2342L20.1297 24.3873C20.733 24.2774 21.1876 23.7643 21.1876 23.1293C21.1876 22.4132 20.6091 21.8525 19.891 21.8525H19.1689L18.2655 19.4534H20.1109C20.8271 19.4534 21.4055 18.8591 21.4055 18.1439C21.4055 17.4287 20.8271 16.8363 20.1109 16.8363H17.2977L16.3943 14.4362H20.1109C20.8271 14.4362 21.4055 13.8964 21.4055 13.1822C21.4055 12.466 20.8271 11.9262 20.1109 11.9262H15.4266L14.5232 9.52803H20.1109C20.8271 9.52803 21.4055 8.9337 21.4055 8.21852C21.4055 7.50433 20.8271 6.91099 20.1109 6.91099H13.5564L12.3935 3.85612H23.2044V27.3065H23.2054Z" fill="#DE172C"/>
</g>
</svg>
